<?xml version="1.0" standalone="no"?>
<!DOCTYPE svg PUBLIC "-//W3C//DTD SVG 20010904//EN"
 "http://www.w3.org/TR/2001/REC-SVG-20010904/DTD/svg10.dtd">
<svg version="1.0" xmlns="http://www.w3.org/2000/svg"
 width="742.000000pt" height="336.000000pt" viewBox="0 0 742.000000 336.000000"
 preserveAspectRatio="xMidYMid meet">
<metadata>
Created by potrace 1.16, written by Peter Selinger 2001-2019
</metadata>
<g transform="translate(0.000000,336.000000) scale(0.100000,-0.100000)"
fill="#000000" stroke="none">
<path d="M4030 2740 c-30 -16 -66 -42 -79 -57 -13 -15 -52 -59 -86 -98 -34
-38 -77 -88 -96 -110 -19 -22 -36 -42 -39 -45 -3 -3 -37 -41 -75 -85 -72 -83
-121 -139 -142 -160 -13 -14 -1 -37 44 -86 l24 -26 -36 -22 c-20 -11 -41 -21
-47 -21 -11 0 -46 27 -124 99 -45 41 -131 118 -234 208 l-34 31 -58 -30 c-32
-16 -62 -37 -68 -46 -7 -13 -9 -7 -10 26 0 23 -1 42 -2 42 -2 0 -50 -15 -108
-34 -110 -35 -328 -104 -440 -138 -36 -11 -94 -35 -130 -53 l-65 -34 3 -162
c1 -89 4 -165 7 -167 2 -3 27 0 54 5 l49 10 4 -34 4 -33 -59 0 c-84 0 -193
-27 -265 -66 -34 -19 -64 -34 -65 -34 -1 0 -1 43 1 96 4 118 -13 178 -78 278
-48 74 -98 121 -187 175 -203 125 -559 130 -893 13 -191 -68 -429 -202 -514
-290 l-39 -41 78 -133 c76 -128 226 -380 230 -386 1 -1 27 9 58 23 l57 25 24
-53 c13 -28 61 -137 106 -242 75 -175 122 -282 171 -392 11 -23 19 -44 19 -48
0 -3 13 -33 29 -68 16 -34 48 -105 71 -157 60 -139 63 -145 89 -148 23 -4 47
3 201 50 225 69 342 120 365 158 6 10 1 35 -44 202 -17 65 -31 122 -31 128 0
6 29 -21 65 -58 75 -80 144 -116 250 -131 134 -19 265 16 390 103 l50 34 6
-26 c4 -15 7 -53 8 -84 0 -32 5 -58 10 -58 4 0 46 6 92 14 46 8 127 19 179 26
123 15 163 25 233 57 l57 27 0 138 c0 76 2 138 5 138 4 0 186 -90 406 -200
l401 -200 59 30 59 30 2 193 3 192 25 3 c33 4 101 29 173 63 34 16 57 23 57
16 0 -12 -15 -114 -25 -169 -5 -29 -27 -23 275 -74 238 -39 217 -39 269 -11
l46 26 39 -75 c22 -41 44 -74 48 -74 5 0 23 7 39 16 17 8 33 13 36 10 3 -3 8
-24 10 -48 l5 -43 247 -44 c135 -24 261 -47 280 -52 29 -7 44 -3 95 24 39 21
61 38 60 49 -1 9 -5 41 -8 72 l-7 56 29 0 c16 0 53 7 81 17 28 9 53 14 55 12
3 -2 1 -24 -4 -49 -4 -25 -10 -66 -13 -92 -7 -55 -29 -46 207 -83 88 -14 161
-27 163 -29 3 -2 7 -37 10 -78 l6 -74 176 -57 c98 -31 188 -57 201 -57 12 0
47 12 75 27 l53 26 66 196 c36 108 125 369 197 581 72 212 136 405 144 430 7
25 36 110 63 190 28 80 50 146 49 146 -1 1 -105 27 -232 58 -126 31 -247 61
-267 66 -31 9 -42 7 -73 -11 -39 -23 -51 -19 -57 21 -3 22 -11 26 -83 41 -105
22 -254 55 -335 74 -36 8 -99 22 -142 31 l-76 16 -56 -28 -56 -28 0 -163 0
-163 -48 0 c-61 0 -140 -22 -215 -61 -31 -16 -59 -29 -61 -29 -2 0 -7 17 -10
38 -3 20 -15 93 -25 162 -11 69 -27 175 -36 235 -9 61 -19 120 -21 133 -4 22
-5 22 -215 22 l-211 0 -63 -35 -63 -36 -155 7 -155 7 -65 -37 c-69 -38 -68
-36 -82 -134 l-7 -42 -36 29 c-38 30 -138 83 -182 97 -14 4 -54 12 -89 18
l-64 11 84 44 c46 24 119 64 163 88 43 23 81 43 85 43 3 0 12 4 20 9 12 8 -12
49 -115 205 -71 107 -131 195 -134 195 -3 0 -30 -13 -60 -29z m75 -198 c16
-20 45 -58 62 -84 l33 -47 -33 -18 c-37 -19 -79 -40 -236 -117 -88 -44 -117
-54 -127 -45 -25 20 -38 2 212 297 25 28 48 52 52 52 4 0 20 -17 37 -38z
m-1261 -577 c7 -156 12 -198 23 -169 2 7 27 43 56 81 29 38 90 122 137 186
l85 117 60 -59 c33 -33 94 -91 135 -130 l75 -70 -50 -53 c-28 -29 -115 -120
-195 -202 -165 -169 -162 -148 -25 -201 39 -15 84 -32 100 -39 17 -7 56 -23
87 -35 42 -17 63 -33 82 -61 37 -56 108 -124 161 -155 59 -35 172 -75 213 -75
l32 0 0 -125 c0 -69 -4 -125 -9 -125 -5 0 -210 101 -455 225 -245 124 -448
225 -451 225 -3 0 -5 -107 -5 -239 l0 -239 -82 -11 c-46 -7 -99 -15 -119 -18
l-36 -5 -6 68 c-10 104 -8 136 9 169 51 94 72 220 55 323 -11 71 -60 176 -100
219 -27 27 -28 32 -40 223 -7 107 -15 198 -17 202 -2 3 -27 0 -54 -7 l-50 -13
0 49 0 48 73 22 c39 11 117 34 172 51 55 16 105 31 110 32 17 4 22 -31 29
-209z m2426 206 c0 -5 9 -64 20 -132 73 -443 71 -417 23 -487 -143 -207 -128
-461 36 -614 31 -29 71 -60 87 -69 28 -15 53 -63 41 -76 -3 -2 -68 5 -146 17
-78 11 -146 20 -151 20 -4 0 -11 17 -14 38 -8 53 -34 231 -52 347 -8 55 -18
115 -20 134 -3 18 -9 30 -13 25 -4 -5 -29 -65 -56 -134 -27 -69 -51 -129 -55
-133 -6 -7 -83 147 -148 296 -13 31 -28 57 -32 57 -4 0 -13 -39 -20 -87 -6
-49 -18 -122 -25 -163 -8 -41 -17 -99 -21 -127 -8 -63 -5 -62 -154 -33 -56 11
-111 20 -122 20 -19 0 -20 4 -14 63 4 34 14 91 22 127 14 58 22 72 77 128 l62
63 -44 41 c-42 39 -43 43 -38 87 12 100 86 521 93 533 6 10 284 7 290 -3 5 -9
30 -139 49 -259 27 -166 23 -176 95 208 l23 122 104 0 c56 0 103 -4 103 -9z
m-3822 -47 c205 -41 347 -167 382 -336 35 -176 -97 -418 -315 -573 -36 -26
-65 -53 -65 -61 0 -9 23 -104 51 -212 28 -108 61 -237 74 -287 13 -49 23 -90
22 -91 -6 -5 -233 -74 -244 -74 -7 0 -13 4 -13 10 0 5 -15 42 -34 82 -19 40
-41 90 -49 110 -17 40 -126 287 -157 353 -10 22 -54 121 -98 220 -82 185 -119
268 -153 342 l-19 42 -47 -20 c-27 -11 -52 -24 -57 -30 -15 -14 -33 -11 -39 9
-4 9 -16 33 -29 53 -13 20 -50 83 -82 139 -57 99 -59 103 -40 117 32 24 234
119 314 148 187 67 436 92 598 59z m2653 -88 c60 -18 173 -88 195 -121 15 -23
23 -12 -221 -269 -77 -81 -141 -152 -143 -157 -5 -13 35 -11 93 5 66 17 90 30
148 78 l48 40 60 -57 c34 -31 74 -66 90 -77 16 -12 29 -29 29 -37 0 -23 -107
-106 -186 -144 -115 -56 -223 -80 -345 -75 -156 6 -257 53 -335 155 -95 125
-103 317 -18 453 58 94 188 181 321 215 71 18 188 14 264 -9z m2148 -51 c96
-20 175 -37 176 -38 2 -5 100 -490 114 -564 9 -46 19 -83 22 -83 4 0 12 28 19
63 6 34 24 109 40 167 15 58 33 128 39 155 26 121 49 190 62 189 42 -4 289
-61 289 -68 0 -11 -436 -1306 -442 -1311 -3 -3 -18 -1 -34 4 -16 5 -61 19
-101 32 l-71 22 -6 101 c-3 56 -8 233 -11 395 -3 162 -7 296 -9 298 -2 3 -25
-113 -63 -322 -30 -169 -52 -277 -57 -282 -4 -5 -177 22 -215 33 -10 3 -12 15
-7 42 3 20 6 56 6 80 0 38 6 50 49 95 109 116 161 240 161 384 0 113 -27 188
-104 285 -30 39 -31 57 -9 200 l5 37 -47 13 c-46 13 -47 13 -41 48 3 19 6 43
6 54 0 15 5 17 28 13 15 -4 106 -22 201 -42z m-333 -319 c105 -49 164 -126
185 -244 21 -110 -32 -248 -133 -354 -96 -98 -202 -142 -331 -136 -131 6 -225
65 -278 173 -21 43 -24 64 -24 150 0 92 3 106 32 167 52 111 158 206 276 249
79 28 207 26 273 -5z m-3521 -67 c156 -48 251 -221 215 -392 -30 -147 -138
-283 -277 -353 -76 -38 -81 -39 -183 -39 -95 0 -110 3 -157 27 -106 56 -162
132 -184 252 -25 137 47 308 175 413 128 104 270 136 411 92z"/>
<path d="M1311 1766 c-19 -7 -37 -18 -39 -25 -2 -7 15 -74 38 -149 23 -75 52
-170 65 -210 12 -40 24 -74 27 -75 14 -5 148 112 172 149 72 113 45 254 -59
304 -48 23 -149 26 -204 6z"/>
<path d="M3795 1860 c-86 -45 -133 -130 -121 -217 7 -54 39 -117 68 -138 26
-18 18 -24 158 134 36 40 84 94 107 120 24 25 43 49 43 53 0 4 -16 20 -37 35
-50 38 -158 45 -218 13z m134 -77 c-134 -161 -160 -187 -170 -172 -5 8 -9 34
-9 59 0 65 30 98 97 109 29 4 50 4 47 -1 -9 -14 13 -9 26 7 7 8 15 15 18 15 3
0 -1 -8 -9 -17z"/>
<path d="M5690 1611 c-134 -41 -191 -157 -132 -267 74 -137 295 -137 362 0 20
42 24 99 11 146 l-7 25 -7 -27 c-19 -73 -91 -112 -166 -89 -51 15 -72 41 -78
95 -5 40 -2 48 24 73 16 15 38 33 48 40 19 11 19 12 -5 12 -14 -1 -36 -4 -50
-8z"/>
<path d="M2195 1519 c-82 -19 -145 -97 -145 -178 0 -95 101 -191 200 -191 89
1 176 65 201 150 10 34 10 49 -3 88 -13 36 -16 41 -17 21 -1 -34 -60 -94 -100
-102 -40 -8 -105 17 -131 51 -11 14 -20 40 -20 60 0 28 8 43 40 74 43 40 41
42 -25 27z"/>
</g>
</svg>
